<?xml version="1.0" encoding="utf-8"?>
<!-- Generator: Adobe Illustrator 25.2.1, SVG Export Plug-In . SVG Version: 6.00 Build 0)  -->
<svg version="1.1" id="Layer_1" xmlns="http://www.w3.org/2000/svg" xmlns:xlink="http://www.w3.org/1999/xlink" x="0px" y="0px"
	 viewBox="0 0 64 64" style="enable-background:new 0 0 64 64;" xml:space="preserve">
<g>
	<path d="M32,0L0,32l32,32l32-32L32,0z M37.97,21.88c0.3,0,0.58,0.05,0.86,0.12c1.01,0.25,1.84,0.91,2.33,1.8
		c0.19,0.34,0.33,0.71,0.4,1.1c0.04,0.22,0.07,0.44,0.07,0.67c0,0.51-0.1,0.99-0.29,1.43c-0.01,0.02-0.02,0.04-0.03,0.06
		c-0.12,0.27-0.28,0.52-0.46,0.75c-0.67,0.86-1.71,1.43-2.9,1.43c0,0,0,0,0,0s0,0,0,0c-1.41,0-2.61-0.8-3.23-1.97
		c-0.27-0.52-0.44-1.1-0.44-1.73C34.28,23.51,35.94,21.87,37.97,21.88z M25.98,20c1.01,0,1.93,0.42,2.59,1.09
		c0.32,0.33,0.58,0.71,0.77,1.14c0,0.01,0.01,0.02,0.02,0.03c0.04,0.09,0.05,0.18,0.08,0.27c0.12,0.37,0.2,0.76,0.2,1.16
		c0,0.74-0.23,1.42-0.6,1.99c-0.66,1.01-1.79,1.67-3.09,1.67c-1.22,0-2.29-0.61-2.96-1.53c-0.26-0.36-0.45-0.76-0.56-1.2
		c-0.08-0.31-0.14-0.62-0.14-0.95c0-0.75,0.23-1.44,0.61-2.02C23.55,20.65,24.69,20,25.98,20z M39.81,44c-1.17,0-2.34,0-3.51-0.01
		c-1.09-0.01-1.87-0.79-1.88-1.88c-0.02-1.64-0.03-3.28-0.05-4.92c-0.01-0.62-0.01-1.25-0.08-1.87c-0.13-1.25-1.03-2.2-2.26-2.46
		c-0.68-0.14-1.35-0.11-2.01,0.07c-0.29,0.08-0.33,0.14-0.33,0.44c-0.02,1.66-0.03,3.33-0.04,4.99c-0.01,1.22-0.06,2.45-0.03,3.67
		c0.03,1.09-0.81,1.95-1.76,1.95c-1.31,0-2.62,0.03-3.93-0.02c-0.94-0.04-1.62-0.84-1.62-1.79c0-1.91,0-3.82,0-5.73v-0.47h0.01
		c0-2.03,0-4.06,0-6.09c0-0.13,0.01-0.25,0.02-0.38c0.07-0.6,0.38-0.94,0.97-1.08c0.76-0.17,1.52-0.15,2.29-0.11
		c0.72,0.04,1.41,0.17,2.03,0.54c0.51,0.31,1,0.64,1.49,0.98c1.03,0.71,2.13,1.25,3.4,1.38c0.99,0.1,1.96,0.02,2.93-0.18
		c0.74-0.15,1.47-0.33,2.21-0.44c0.97-0.15,1.93-0.1,2.89,0.12c0.24,0.06,0.48,0.17,0.7,0.29c0.31,0.18,0.45,0.48,0.48,0.84
		c0,0.05,0,0.1,0,0.16c0,3.37,0,6.74-0.01,10.11C41.71,43.22,40.92,44,39.81,44z"/>
</g>
</svg>
