<?xml version="1.0" encoding="utf-8"?>
<!-- Generator: Adobe Illustrator 25.2.1, SVG Export Plug-In . SVG Version: 6.00 Build 0)  -->
<svg version="1.1" id="Layer_1" xmlns="http://www.w3.org/2000/svg" xmlns:xlink="http://www.w3.org/1999/xlink" x="0px" y="0px"
	 viewBox="0 0 64 64" style="enable-background:new 0 0 64 64;" xml:space="preserve">
<g>
	<path d="M32,0L0,32l32,32l32-32L32,0z M22.5,20.5c1.37,0,2.48,1.12,2.48,2.5c0,1.38-1.11,2.5-2.48,2.5s-2.48-1.12-2.48-2.5
		C20.02,21.62,21.13,20.5,22.5,20.5z M25,43.5h-5v-16h5V43.5z M39.01,43.5v-8.4c0-5.05-6.03-4.67-6.03,0v8.4h-4.97v-16h4.97v2.15
		C35.08,25.78,44,25.49,44,33.37V43.5H39.01z"/>
</g>
</svg>
