<?xml version="1.0" encoding="utf-8"?>
<!-- Generator: Adobe Illustrator 25.2.1, SVG Export Plug-In . SVG Version: 6.00 Build 0)  -->
<svg version="1.1" id="Layer_1" xmlns="http://www.w3.org/2000/svg" xmlns:xlink="http://www.w3.org/1999/xlink" x="0px" y="0px"
	 viewBox="0 0 64 64" style="enable-background:new 0 0 64 64;" xml:space="preserve">
<g>
	<g>
		<path d="M32,0L0,32l32,32l32-32L32,0z M41.15,42.13c-1.95,0.46-5.55,0.66-9.15,0.66h0c-3.6,0-7.2-0.21-9.15-0.66
			c-1.26-1.29-1.01-6.52-1.03-8.85c0-0.45,0-0.77,0.01-1.17l0,0c0.02-0.78,0.06-1.84,0.17-2.95c0.08,0.03,0.17,0.05,0.26,0.05
			c0.73,0,1.43-0.28,1.95-0.79c0.18-0.18,0.36-0.37,0.48-0.59l0,0c0.13,0.22,0.26,0.41,0.45,0.59c0.52,0.51,1.22,0.8,1.95,0.79
			c0.76,0,1.45-0.3,1.95-0.79c0.18-0.18,0.34-0.38,0.47-0.6l0,0c0.13,0.22,0.28,0.42,0.46,0.6c0.52,0.51,1.22,0.8,1.95,0.79
			c0.03,0,0.05,0,0.08,0h0c0.03,0,0.05,0,0.08,0c0.73,0,1.43-0.28,1.95-0.79c0.18-0.18,0.34-0.38,0.46-0.6
			c0.13,0.22,0.28,0.42,0.47,0.6c0.5,0.49,1.19,0.79,1.95,0.79c0.73,0,1.43-0.28,1.95-0.79c0.18-0.18,0.32-0.37,0.45-0.59l0,0
			c0.13,0.22,0.3,0.41,0.48,0.59c0.52,0.51,1.22,0.79,1.95,0.79c0.09,0,0.19-0.03,0.26-0.05c0.11,1.11,0.15,2.18,0.17,2.95l0,0
			c0,0.39,0,0.72,0.01,1.17C42.16,35.62,42.41,40.85,41.15,42.13z M41.67,28.43c-1.33,0-2.44-1.1-2.44-2.41
			c0,1.31-1.07,2.41-2.4,2.41c-1.33,0-2.36-1.1-2.36-2.41c0,1.31-1.14,2.41-2.47,2.41h-0.02c-1.33,0-2.47-1.1-2.47-2.41
			c0,1.31-1.03,2.41-2.36,2.41c-1.33,0-2.4-1.1-2.4-2.41c0,1.31-1.11,2.41-2.44,2.41c-1.11,0-2.33-1.15-2.33-2.45v-1.03
			c0.02-0.62,2.08-2.99,3.13-3.61h0c0.93-0.08,5.51-0.13,8.87-0.13c3.36,0,5.62,0.02,8.87,0.13c1.05,0.62,3.11,2.99,3.13,3.61v1.03
			C44,27.28,42.78,28.43,41.67,28.43z"/>
	</g>
	<g>
		<path d="M39.42,33.34c-1.05-2.93-2.54-2.93-2.92-2.93l0,0h0c-0.79,0-1.5,0-2.37,0.95c-0.69-0.07-1.41-0.11-2.12-0.11h0
			c-0.72,0-1.44,0.03-2.12,0.11c-0.87-0.95-1.58-0.95-2.37-0.95h0l0,0c-0.38,0-1.87,0-2.92,2.93l-1.12,4.03
			c-0.83,3,0.27,3.07,1.64,3.07c2.03-0.08,3.16-1.55,3.16-3.03c1.12,0.18,2.44,0.28,3.75,0.28h0c1.31,0,2.62-0.09,3.75-0.28
			c0,1.47,1.12,2.95,3.16,3.03c1.37,0,2.47-0.08,1.64-3.07L39.42,33.34z M33.12,35.32v1.22c0,0.06-0.56,0.03-1.12,0.01h0
			c-0.56,0.03-1.12,0.05-1.12-0.01v-1.22l-1.4,0.06c0.38-0.7,2.52-2.66,2.52-2.66v0l0,0l0,0v0c0,0,2.14,1.96,2.52,2.66L33.12,35.32z
			"/>
	</g>
</g>
</svg>
