<?xml version="1.0" encoding="utf-8"?>
<!-- Generator: Adobe Illustrator 25.2.1, SVG Export Plug-In . SVG Version: 6.00 Build 0)  -->
<svg version="1.1" id="Layer_1" xmlns:serif="http://www.serif.com/"
	 xmlns="http://www.w3.org/2000/svg" xmlns:xlink="http://www.w3.org/1999/xlink" x="0px" y="0px" viewBox="0 0 36 36"
	 style="enable-background:new 0 0 36 36;" xml:space="preserve">
<style type="text/css">
	.st0{fill-rule:evenodd;clip-rule:evenodd;}
</style>
<path class="st0" d="M18,6L6,18l12,12l12-12L18,6z M8.8,18L18,8.8l9.2,9.2L18,27.2L8.8,18z M18,24.5L11.5,18l6.5-6.5V24.5z M17,0h2
	v4h-2V0z M17,32h2v4h-2V32z M36,17v2h-4v-2H36z M4,17v2H0v-2H4z M28.7,5.9l1.4,1.4l-2.8,2.8l-1.4-1.4L28.7,5.9z M8.7,25.9l1.4,1.4
	l-2.8,2.8l-1.4-1.4L8.7,25.9z M30.2,28.7l-1.4,1.4l-2.8-2.8l1.4-1.4L30.2,28.7z M10.1,8.7l-1.4,1.4L5.8,7.3l1.4-1.4L10.1,8.7z"/>
</svg>
