<?xml version="1.0" encoding="utf-8"?>
<!-- Generator: Adobe Illustrator 25.2.1, SVG Export Plug-In . SVG Version: 6.00 Build 0)  -->
<svg version="1.1" id="Layer_1" xmlns:serif="http://www.serif.com/"
	 xmlns="http://www.w3.org/2000/svg" xmlns:xlink="http://www.w3.org/1999/xlink" x="0px" y="0px" viewBox="0 0 36 36"
	 style="enable-background:new 0 0 36 36;" xml:space="preserve">
<style type="text/css">
	.st0{fill-rule:evenodd;clip-rule:evenodd;}
</style>
<path serif:id="shape 22" class="st0" d="M18,6L6,18l12,12l12-12C30,18,18,6,18,6z M8.8,18L18,8.8l9.2,9.2L18,27.2
	C18,27.2,8.8,18,8.8,18z"/>
<polygon points="18,24.5 11.5,18 18,11.5 "/>
<rect x="17" width="2" height="4"/>
<rect x="17" y="32" width="2" height="4"/>
<rect x="33" y="16" transform="matrix(-1.836970e-16 1 -1 -1.836970e-16 52 -16)" width="2" height="4"/>
<rect x="1" y="16" transform="matrix(-1.836970e-16 1 -1 -1.836970e-16 20 16)" width="2" height="4"/>
<rect x="27" y="6" transform="matrix(0.7071 0.7071 -0.7071 0.7071 13.8492 -17.4767)" width="2" height="4"/>
<rect x="7" y="26" transform="matrix(0.7071 0.7071 -0.7071 0.7071 22.1508 2.565)" width="2" height="4"/>
<rect x="27" y="26" transform="matrix(-0.7071 0.7071 -0.7071 -0.7071 67.6482 28.0208)" width="2" height="4"/>
<rect x="7" y="6" transform="matrix(-0.7071 0.7071 -0.7071 -0.7071 19.2635 7.9792)" width="2" height="4"/>
</svg>
