<?xml version="1.0" encoding="utf-8"?>
<!-- Generator: Adobe Illustrator 25.2.1, SVG Export Plug-In . SVG Version: 6.00 Build 0)  -->
<svg version="1.1" id="Layer_1" xmlns="http://www.w3.org/2000/svg" xmlns:xlink="http://www.w3.org/1999/xlink" x="0px" y="0px"
	 viewBox="0 0 64 64" style="enable-background:new 0 0 64 64;" xml:space="preserve">
<g>
	<path d="M32,0L0,32l32,32l32-32L32,0z M35.8,43.62c-0.61,0.12-0.83-0.26-0.83-0.58c0-0.39,0.01-1.69,0.01-3.29
		c0-1.12-0.38-1.85-0.81-2.22c2.67-0.3,5.48-1.31,5.48-5.92c0-1.31-0.46-2.38-1.23-3.22c0.12-0.3,0.54-1.52-0.12-3.18
		c0,0-1.01-0.32-3.3,1.23c-0.96-0.27-1.99-0.4-3-0.4c-1.02,0-2.05,0.14-3,0.4c-2.29-1.55-3.3-1.23-3.3-1.23
		c-0.65,1.65-0.24,2.87-0.12,3.18c-0.77,0.84-1.24,1.91-1.24,3.22c0,4.6,2.8,5.63,5.47,5.93c-0.34,0.3-0.65,0.83-0.76,1.6
		c-0.68,0.31-2.42,0.84-3.49-1c0,0-0.63-1.15-1.84-1.24c0,0-1.17-0.02-0.08,0.73c0,0,0.79,0.37,1.33,1.76c0,0,0.7,2.33,4.04,1.61
		c0.01,1,0.02,1.76,0.02,2.04c0,0.32-0.22,0.69-0.82,0.58C23.44,42.03,20,37.53,20,32.23c0-6.63,5.37-12,12-12c6.63,0,12,5.37,12,12
		C44,37.53,40.56,42.03,35.8,43.62z"/>
</g>
</svg>
